<svg width="1440" height="1024" viewBox="0 0 1440 1024" fill="none" xmlns="http://www.w3.org/2000/svg">
<g clip-path="url(#clip0_35_338)">
<mask id="path-1-inside-1_35_338" fill="white">
<path d="M63 9.99999C63 4.47714 67.4772 0 73 0H1365C1370.52 0 1375 4.47715 1375 10V802H63V9.99999Z"/>
</mask>
<path d="M63 9.99999C63 4.47714 67.4772 0 73 0H1365C1370.52 0 1375 4.47715 1375 10V802H63V9.99999Z" fill="#F8CC4D"/>
<path d="M53 10C53 -1.04569 61.9543 -10 73 -10H1365C1376.05 -10 1385 -1.04569 1385 10H1365H73H53ZM1375 802H63H1375ZM53 802V10C53 -1.04569 61.9543 -10 73 -10V10V802H53ZM1365 -10C1376.05 -10 1385 -1.04569 1385 10V802H1365V10V-10Z" fill="#613114" mask="url(#path-1-inside-1_35_338)"/>
<path d="M53 10C53 -1.04569 61.9543 -10 73 -10H1365C1376.05 -10 1385 -1.04569 1385 10H1365H73H53ZM1375 802H63H1375ZM53 802V10C53 -1.04569 61.9543 -10 73 -10V10V802H53ZM1365 -10C1376.05 -10 1385 -1.04569 1385 10V802H1365V10V-10Z" fill="#613114" mask="url(#path-1-inside-1_35_338)"/>
<path d="M532.616 132.28C530.056 132.28 528.008 131.597 526.472 130.232C524.936 128.867 524.168 126.989 524.168 124.6V60.344C524.168 54.3707 525.875 49.72 529.288 46.392C532.787 43.064 537.608 41.4 543.752 41.4H565.384C578.355 41.4 588.211 44.088 594.952 49.464C601.693 54.84 605.064 62.7333 605.064 73.144C605.064 83.5547 601.779 91.448 595.208 96.824C588.637 102.2 578.952 104.888 566.152 104.888H541.192V124.6C541.192 126.904 540.381 128.781 538.76 130.232C537.224 131.597 535.176 132.28 532.616 132.28ZM566.024 91.704C580.616 91.704 587.912 85.5173 587.912 73.144C587.912 60.7707 580.616 54.584 566.024 54.584H546.696C544.989 54.584 543.624 55.1387 542.6 56.248C541.661 57.3573 541.192 58.8933 541.192 60.856V91.704H566.024ZM662.885 132.28C652.901 132.28 644.282 130.36 637.029 126.52C629.861 122.595 624.4 117.176 620.645 110.264C616.89 103.267 615.013 95.2453 615.013 86.2C615.013 77.1547 616.89 69.176 620.645 62.264C624.4 55.2667 629.861 49.848 637.029 46.008C644.282 42.0827 652.901 40.12 662.885 40.12C672.869 40.12 681.445 42.0827 688.613 46.008C695.866 49.848 701.37 55.2667 705.125 62.264C708.88 69.176 710.757 77.1547 710.757 86.2C710.757 95.2453 708.88 103.267 705.125 110.264C701.37 117.176 695.866 122.595 688.613 126.52C681.445 130.36 672.869 132.28 662.885 132.28ZM662.885 118.84C672.613 118.84 680.165 115.939 685.541 110.136C690.917 104.248 693.605 96.2693 693.605 86.2C693.605 76.0453 690.789 68.0667 685.157 62.264C679.61 56.4613 671.76 53.56 661.605 53.56C652.304 53.56 645.05 56.5467 639.845 62.52C634.725 68.408 632.165 76.3013 632.165 86.2C632.165 96.2693 634.853 104.248 640.229 110.136C645.605 115.939 653.157 118.84 662.885 118.84ZM728.351 132.28C725.791 132.28 723.743 131.597 722.207 130.232C720.671 128.867 719.903 126.989 719.903 124.6V76.344C719.903 64.9947 723.444 56.12 730.527 49.72C737.61 43.32 747.423 40.12 759.967 40.12C772.511 40.12 782.324 43.32 789.407 49.72C796.49 56.12 800.031 64.9947 800.031 76.344V124.6C800.031 126.989 799.263 128.867 797.727 130.232C796.191 131.597 794.143 132.28 791.583 132.28C789.023 132.28 786.932 131.597 785.311 130.232C783.775 128.781 783.007 126.904 783.007 124.6V75.96C783.007 68.7067 781.044 63.16 777.119 59.32C773.194 55.48 767.476 53.56 759.967 53.56C752.458 53.56 746.74 55.48 742.815 59.32C738.89 63.16 736.927 68.7067 736.927 75.96V124.6C736.927 126.904 736.116 128.781 734.495 130.232C732.959 131.597 730.911 132.28 728.351 132.28ZM858.114 132.28C848.471 132.28 840.109 130.445 833.026 126.776C825.943 123.107 820.525 117.816 816.77 110.904C813.015 103.992 811.138 95.8 811.138 86.328C811.138 76.856 813.015 68.664 816.77 61.752C820.525 54.7547 825.901 49.4213 832.898 45.752C839.981 41.9973 848.301 40.12 857.858 40.12C865.794 40.12 873.133 41.4853 879.874 44.216C886.615 46.9467 891.607 50.5733 894.85 55.096C895.874 56.4613 896.386 57.8693 896.386 59.32C896.386 61.4533 895.234 63.3733 892.93 65.08C891.906 65.848 890.626 66.232 889.09 66.232C887.81 66.232 886.53 65.976 885.25 65.464C883.97 64.8667 882.903 64.056 882.05 63.032C879.149 59.704 875.778 57.3147 871.938 55.864C868.098 54.328 863.405 53.56 857.858 53.56C848.557 53.56 841.303 56.4613 836.098 62.264C830.893 67.9813 828.29 76.0027 828.29 86.328C828.29 96.568 830.893 104.547 836.098 110.264C841.389 115.981 848.727 118.84 858.114 118.84C865.879 118.84 871.938 117.347 876.29 114.36C880.727 111.373 882.946 107.235 882.946 101.944V99.128C882.946 97.336 882.519 96.0987 881.666 95.416C880.898 94.7333 879.533 94.392 877.57 94.392H860.802C858.413 94.392 856.535 93.8373 855.17 92.728C853.805 91.5333 853.122 89.912 853.122 87.864C853.122 85.7307 853.762 84.1093 855.042 83C856.407 81.8053 858.327 81.208 860.802 81.208H885.634C890.583 81.208 894.21 82.2747 896.514 84.408C898.818 86.456 899.97 89.7413 899.97 94.264V99.256C899.97 105.741 898.221 111.501 894.722 116.536C891.223 121.485 886.274 125.368 879.874 128.184C873.559 130.915 866.306 132.28 858.114 132.28Z" fill="black"/>
<rect x="166" y="166" width="1107.01" height="600" rx="10" fill="#613114"/>
<rect x="217.325" y="208.857" width="1006.38" height="514.286" rx="10" fill="#414141"/>
<g filter="url(#filter0_i_35_338)">
<path d="M397.628 696.143H1040.87L1209.72 723.143H233.721L397.628 696.143Z" fill="#414141"/>
</g>
<g filter="url(#filter1_d_35_338)">
<path d="M237 208H1199L1039.56 266H400.192L237 208Z" fill="#414141"/>
</g>
<path d="M1371.25 807L1433.33 1019H6.61719L66.7793 807H1371.25Z" fill="#F8BC4D" stroke="#613114" stroke-width="10"/>
<path d="M162 829H1280.5L1319 996H119L162 829Z" fill="#9C9C9C"/>
<rect x="331" y="849.418" width="58" height="37.0811" rx="5" fill="#D9D9D9"/>
<rect x="331" y="843" width="58" height="32.0894" rx="5" fill="#BEBEBE"/>
<path d="M358.5 866.532C358.5 867.361 359.172 868.032 360 868.032C360.828 868.032 361.5 867.361 361.5 866.532H358.5ZM361.061 851.21C360.475 850.624 359.525 850.624 358.939 851.21L349.393 860.756C348.808 861.341 348.808 862.291 349.393 862.877C349.979 863.463 350.929 863.463 351.515 862.877L360 854.392L368.485 862.877C369.071 863.463 370.021 863.463 370.607 862.877C371.192 862.291 371.192 861.341 370.607 860.756L361.061 851.21ZM360 866.532H361.5V852.27H360H358.5V866.532H360Z" fill="black"/>
<rect x="331" y="897.919" width="58" height="37.0811" rx="5" fill="#D9D9D9"/>
<rect x="331" y="891.501" width="58" height="32.0894" rx="5" fill="#BEBEBE"/>
<path d="M361.5 900.771C361.5 899.943 360.828 899.271 360 899.271C359.172 899.271 358.5 899.943 358.5 900.771H361.5ZM358.939 916.094C359.525 916.68 360.475 916.68 361.061 916.094L370.607 906.548C371.192 905.962 371.192 905.012 370.607 904.426C370.021 903.841 369.071 903.841 368.485 904.426L360 912.912L351.515 904.426C350.929 903.841 349.979 903.841 349.393 904.426C348.808 905.012 348.808 905.962 349.393 906.548L358.939 916.094ZM360 900.771H358.5V915.033H360H361.5V900.771H360Z" fill="black"/>
<rect x="1109" y="849.415" width="57.0213" height="37.0638" rx="5" fill="#D9D9D9"/>
<rect x="1109" y="843" width="57.0213" height="32.0745" rx="5" fill="#BEBEBE"/>
<path d="M1136.01 866.521C1136.01 867.35 1136.68 868.021 1137.51 868.021C1138.34 868.021 1139.01 867.35 1139.01 866.521H1136.01ZM1138.57 851.205C1137.99 850.619 1137.04 850.619 1136.45 851.205L1126.9 860.751C1126.32 861.337 1126.32 862.287 1126.9 862.873C1127.49 863.458 1128.44 863.458 1129.03 862.873L1137.51 854.387L1146 862.873C1146.58 863.458 1147.53 863.458 1148.12 862.873C1148.7 862.287 1148.7 861.337 1148.12 860.751L1138.57 851.205ZM1137.51 866.521H1139.01V852.266H1137.51H1136.01V866.521H1137.51Z" fill="black"/>
<rect x="1109" y="897.893" width="57.0213" height="37.0638" rx="5" fill="#D9D9D9"/>
<rect x="1109" y="891.479" width="57.0213" height="32.0745" rx="5" fill="#BEBEBE"/>
<path d="M1139.01 900.744C1139.01 899.916 1138.34 899.244 1137.51 899.244C1136.68 899.244 1136.01 899.916 1136.01 900.744H1139.01ZM1136.45 916.06C1137.04 916.646 1137.99 916.646 1138.57 916.06L1148.12 906.514C1148.7 905.929 1148.7 904.979 1148.12 904.393C1147.53 903.807 1146.58 903.807 1146 904.393L1137.51 912.878L1129.03 904.393C1128.44 903.807 1127.49 903.807 1126.9 904.393C1126.32 904.979 1126.32 905.929 1126.9 906.514L1136.45 916.06ZM1137.51 900.744H1136.01V915H1137.51H1139.01V900.744H1137.51Z" fill="black"/>
<rect x="375" y="256" width="690" height="450" rx="10" fill="#151515"/>
</g>
<defs>
<filter id="filter0_i_35_338" x="233.721" y="696.143" width="976" height="31" filterUnits="userSpaceOnUse" color-interpolation-filters="sRGB">
<feFlood flood-opacity="0" result="BackgroundImageFix"/>
<feBlend mode="normal" in="SourceGraphic" in2="BackgroundImageFix" result="shape"/>
<feColorMatrix in="SourceAlpha" type="matrix" values="0 0 0 0 0 0 0 0 0 0 0 0 0 0 0 0 0 0 127 0" result="hardAlpha"/>
<feOffset dy="4"/>
<feGaussianBlur stdDeviation="25"/>
<feComposite in2="hardAlpha" operator="arithmetic" k2="-1" k3="1"/>
<feColorMatrix type="matrix" values="0 0 0 0 0 0 0 0 0 0 0 0 0 0 0 0 0 0 0.25 0"/>
<feBlend mode="multiply" in2="shape" result="effect1_innerShadow_35_338"/>
</filter>
<filter id="filter1_d_35_338" x="187" y="168" width="1062" height="158" filterUnits="userSpaceOnUse" color-interpolation-filters="sRGB">
<feFlood flood-opacity="0" result="BackgroundImageFix"/>
<feColorMatrix in="SourceAlpha" type="matrix" values="0 0 0 0 0 0 0 0 0 0 0 0 0 0 0 0 0 0 127 0" result="hardAlpha"/>
<feOffset dy="10"/>
<feGaussianBlur stdDeviation="25"/>
<feComposite in2="hardAlpha" operator="out"/>
<feColorMatrix type="matrix" values="0 0 0 0 0 0 0 0 0 0 0 0 0 0 0 0 0 0 0.25 0"/>
<feBlend mode="multiply" in2="BackgroundImageFix" result="effect1_dropShadow_35_338"/>
<feBlend mode="normal" in="SourceGraphic" in2="effect1_dropShadow_35_338" result="shape"/>
</filter>
<clipPath id="clip0_35_338">
<rect width="1440" height="1024" fill="white"/>
</clipPath>
</defs>
</svg>
